<?xml version="1.0" encoding="UTF-8" standalone="no"?>
<!-- Generator: Adobe Illustrator 19.0.0, SVG Export Plug-In . SVG Version: 6.00 Build 0)  -->

<svg
   version="1.1"
   id="Capa_1"
   x="0px"
   y="0px"
   viewBox="0 0 57.991 57.991"
   style="enable-background:new 0 0 57.991 57.991;"
   xml:space="preserve"
   sodipodi:docname="bslogo.svg"
   inkscape:version="1.2 (dc2aedaf03, 2022-05-15)"
   xmlns:inkscape="http://www.inkscape.org/namespaces/inkscape"
   xmlns:sodipodi="http://sodipodi.sourceforge.net/DTD/sodipodi-0.dtd"
   xmlns="http://www.w3.org/2000/svg"
   xmlns:svg="http://www.w3.org/2000/svg"><defs
   id="defs47" /><sodipodi:namedview
   id="namedview45"
   pagecolor="#ffffff"
   bordercolor="#000000"
   borderopacity="0.25"
   inkscape:showpageshadow="2"
   inkscape:pageopacity="0.0"
   inkscape:pagecheckerboard="0"
   inkscape:deskcolor="#d1d1d1"
   showgrid="false"
   inkscape:zoom="14.433274"
   inkscape:cx="28.960858"
   inkscape:cy="29.099427"
   inkscape:window-width="1920"
   inkscape:window-height="1017"
   inkscape:window-x="-8"
   inkscape:window-y="-8"
   inkscape:window-maximized="1"
   inkscape:current-layer="Capa_1" />
<path
   style="fill:#556080;"
   d="M28.995,50.241l1.413-9.695c1.256-8.623,9.265-16.631,17.887-17.887l9.695-1.413l-1.413,9.695  c-1.256,8.623-9.265,16.631-17.887,17.887L28.995,50.241z"
   id="path2" />
<path
   style="fill:#7D6599;"
   d="M28.995,50.241L19.3,48.828c-8.623-1.256-16.631-9.265-17.887-17.887L0,21.245l9.695,1.413  c8.623,1.256,16.631,9.265,17.887,17.887L28.995,50.241z"
   id="path4" />
<polygon
   style="fill:#8697CB;"
   points="28.995,49.265 28.819,49.027 28.919,49.718 28.993,49.75 28.995,49.73 28.998,49.75   29.072,49.718 29.172,49.027 "
   id="polygon6" />
<path
   style="fill:#8697CB;"
   d="M20.919,20.077c-1.081-0.78-2.227-1.448-3.43-1.965l-9.254-4.315l-0.747,8.539l2.207,0.322  c3.43,0.5,6.755,2.08,9.604,4.33C19.476,24.591,20.023,22.239,20.919,20.077z"
   id="path8" />
<path
   style="fill:#894B9D;"
   d="M49.755,13.797l-9.254,4.315c-1.203,0.518-2.349,1.185-3.43,1.965  c0.897,2.162,1.443,4.514,1.62,6.911c2.849-2.25,6.174-3.831,9.604-4.33l2.207-0.322L49.755,13.797z"
   id="path10" />
<path
   style="fill:#ED7161;"
   d="M27.583,40.546l1.236,8.482l0.177,0.237l0.177-0.237l1.236-8.482  c0.757-5.192,3.97-10.15,8.283-13.557c-0.293-3.97-1.572-7.834-3.839-10.875L28.995,7.75l-5.857,8.364  c-2.268,3.041-3.546,6.905-3.839,10.875C23.613,30.395,26.826,35.353,27.583,40.546z"
   id="path12" />
<g
   id="g14">
</g>
<g
   id="g16">
</g>
<g
   id="g18">
</g>
<g
   id="g20">
</g>
<g
   id="g22">
</g>
<g
   id="g24">
</g>
<g
   id="g26">
</g>
<g
   id="g28">
</g>
<g
   id="g30">
</g>
<g
   id="g32">
</g>
<g
   id="g34">
</g>
<g
   id="g36">
</g>
<g
   id="g38">
</g>
<g
   id="g40">
</g>
<g
   id="g42">
</g>
<path
   style="fill:#1e3c8d;stroke:#dbe4e7;stroke-width:0.180694;fill-opacity:1"
   d="M 23.833816,49.463316 C 18.725589,48.712381 17.780299,48.541164 16.524318,48.139376 13.203336,47.076993 10.286487,45.2514 7.5849195,42.544401 4.5930217,39.546487 2.5343042,35.942775 1.7050326,32.251865 1.5093393,31.380877 0.02943007,21.390982 0.08749304,21.332919 0.1367757,21.283636 9.5275875,22.652122 10.600506,22.864938 c 7.379503,1.463747 14.430161,8.084254 16.453087,15.449308 0.345259,1.257015 0.398473,1.5692 1.145573,6.720582 0.381331,2.629341 0.711188,4.866359 0.733016,4.971152 0.03216,0.154403 0.01565,0.189096 -0.08707,0.18296 -0.06971,-0.0042 -2.324799,-0.330695 -5.0113,-0.725624 z"
   id="path954" /><path
   style="fill:#1e3c8d;fill-opacity:1;stroke:#dbe4e7;stroke-width:0.180694"
   d="m 29.06919,50.012757 c 0.016,-0.10852 0.340736,-2.348588 0.721632,-4.977929 0.380895,-2.629341 0.757537,-5.0924 0.836981,-5.473464 0.510473,-2.448545 1.490116,-4.733233 3.015379,-7.032362 3.313999,-4.995404 8.568155,-8.663225 13.885882,-9.693456 1.003015,-0.194319 10.331658,-1.545413 10.374503,-1.502569 0.03232,0.03232 -0.724696,5.352352 -1.271294,8.934196 -0.401242,2.629326 -0.909262,4.307903 -1.907817,6.303722 -1.146886,2.292289 -2.458911,4.107421 -4.318957,5.975098 -2.312654,2.322141 -4.800339,3.99748 -7.587771,5.110006 -1.953718,0.779773 -2.636855,0.922199 -8.521975,1.776741 -2.648394,0.384557 -4.914351,0.716774 -5.03546,0.73826 -0.209619,0.03719 -0.2188,0.02959 -0.191103,-0.158243 z"
   id="path1025" /><path
   style="fill:#9bb8e0;fill-opacity:1;stroke:#dbe4e7;stroke-width:0.180694"
   d="m 28.933838,49.087962 c -0.0235,-0.09527 -0.30966,-1.997121 -0.63592,-4.226345 -0.820911,-5.608999 -0.978374,-6.387252 -1.663578,-8.222193 -1.209084,-3.237866 -3.619766,-6.598369 -6.490414,-9.047668 -0.806376,-0.688018 -0.820723,-0.705322 -0.78571,-0.947617 0.01962,-0.135741 0.05545,-0.449458 0.07963,-0.69715 0.07701,-0.788813 0.371434,-2.288767 0.652784,-3.325649 0.455462,-1.678554 1.103754,-3.272851 1.887604,-4.642051 0.319222,-0.557603 6.990534,-10.2067989 7.02462,-10.1602099 0.561514,0.767467 6.470529,9.2641819 6.704511,9.6405769 0.934943,1.503994 1.814457,3.615255 2.294578,5.508106 0.200885,0.791974 0.490484,2.357229 0.55121,2.979227 0.02418,0.247692 0.0598,0.5601 0.07914,0.69424 0.03433,0.238043 0.0166,0.259642 -0.739402,0.900697 -3.002554,2.546029 -5.517235,6.147185 -6.724003,9.629128 -0.604005,1.742767 -0.671143,2.1092 -1.726393,9.422672 -0.189691,1.31467 -0.372129,2.452666 -0.405416,2.528878 -0.0572,0.130955 -0.06287,0.129052 -0.103241,-0.03464 z"
   id="path1755" /><path
   style="fill:#1e3c8d;fill-opacity:1;stroke:#dbe4e7;stroke-width:0.180694"
   d="m 38.705875,26.272487 c -0.11123,-1.436984 -0.627464,-3.728144 -1.189132,-5.277629 -0.171076,-0.471951 -0.310381,-0.88365 -0.309568,-0.914887 0.0021,-0.08122 0.433983,-0.376031 1.33198,-0.909269 0.720392,-0.427774 11.109611,-5.331301 11.168132,-5.27116 0.02464,0.02532 0.733977,8.010262 0.73245,8.245132 -5.55e-4,0.0902 -0.160665,0.135839 -0.814821,0.232322 -2.879327,0.424676 -4.11874,0.746969 -6.044034,1.571675 -1.388422,0.594734 -3.280809,1.698933 -4.438978,2.590124 l -0.392063,0.301686 z"
   id="path2173" /><path
   style="fill:#1e3c8d;fill-opacity:1;stroke:#dbe4e7;stroke-width:0.180694"
   d="M 18.477553,26.278441 C 16.304848,24.723538 14.007752,23.614159 11.699013,23.004756 11.1901,22.870426 10.056623,22.647369 9.1801764,22.509074 8.3037294,22.37078 7.5744322,22.246717 7.559516,22.23338 7.527321,22.20459 8.2454835,13.938284 8.2835502,13.89949 c 0.03559,-0.03627 9.4311718,4.338997 10.4000008,4.842999 0.848093,0.441192 2.101754,1.236397 2.101754,1.333156 0,0.03362 -0.136839,0.440876 -0.304088,0.905023 -0.52173,1.447902 -1.069985,3.853621 -1.203011,5.278759 l -0.0518,0.554934 z"
   id="path2929" /><path
   style="fill:#1e3c8d;fill-opacity:1;stroke:#dbe4e7;stroke-width:0.180694"
   d="m 38.86852,26.547678 c 0,-0.02162 -0.04812,-0.407255 -0.106938,-0.856956 -0.200841,-1.535608 -0.549855,-3.008576 -1.103943,-4.65904 -0.171988,-0.512301 -0.289472,-0.948952 -0.261077,-0.970337 0.702016,-0.528681 1.861776,-1.134284 5.282598,-2.758465 4.555503,-2.16292 6.862561,-3.2232 6.910037,-3.175723 0.02577,0.02577 0.483921,5.02723 0.67748,7.395781 l 0.04895,0.599064 -0.198129,0.04006 c -0.108971,0.02203 -0.774921,0.134289 -1.479889,0.249455 -2.08833,0.341156 -3.318479,0.67625 -4.884547,1.330559 -1.514831,0.632902 -3.408129,1.719143 -4.659372,2.67322 -0.123846,0.09443 -0.225175,0.154004 -0.225175,0.132379 z"
   id="path4412" /><path
   style="fill:#ffffff;stroke:#dbe4e7;stroke-width:0.180694"
   d="M 28.966328,48.598322 C 28.9536,48.345666 27.903196,41.39983 27.71251,40.307404 27.324906,38.086843 26.878191,36.684873 25.973608,34.850028 24.633555,32.131884 22.652053,29.629717 19.964298,27.261693 l -0.509227,-0.44865 0.0811,-0.692843 c 0.1158,-0.989296 0.456522,-2.687742 0.735256,-3.665131 0.628543,-2.204005 1.363062,-3.763291 2.707196,-5.74701 1.00513,-1.483404 5.073071,-7.3627164 5.668594,-8.1927023 l 0.354286,-0.4937719 1.382687,1.9784202 c 1.917823,2.744124 4.316172,6.202565 4.93286,7.113229 0.878725,1.297614 1.832822,3.38947 2.370048,5.196327 0.313925,1.055825 0.835001,3.82508 0.835001,4.43761 0,0.04483 -0.346655,0.386715 -0.770345,0.759746 -3.226252,2.840507 -5.582257,6.28465 -6.804431,9.947106 -0.454767,1.362789 -0.640124,2.376194 -1.468934,8.031152 -0.431617,2.944906 -0.499687,3.358752 -0.512061,3.113147 z"
   id="path3268" /><path
   style="fill:#563280;stroke:#dbe4e7;stroke-width:0.180694;fill-opacity:1"
   d="m 27.505887,49.876468 c -0.590649,-0.08991 -2.149547,-0.321203 -3.464218,-0.513992 -6.1827,-0.90666 -6.910126,-1.061092 -9.006965,-1.912177 C 8.7384519,44.894718 3.3522451,38.730289 1.8760555,32.390433 1.6792798,31.545332 0.16624133,21.531307 0.22626063,21.471288 c 0.0497535,-0.04975 9.57376537,1.365314 10.54745537,1.56713 6.877509,1.425493 13.583408,7.528067 15.893003,14.463119 0.506222,1.520041 0.594225,2.000197 1.494981,8.156849 0.323362,2.210171 0.603499,4.104232 0.622528,4.209025 0.04115,0.226609 0.146011,0.225866 -1.278341,0.0091 z"
   id="path3270" /><path
   style="fill:#563280;fill-opacity:1;stroke:#dbe4e7;stroke-width:0.180694"
   d="m 29.288304,49.383414 c 0.485766,-3.397817 1.232481,-8.414832 1.369071,-9.198491 0.34199,-1.9621 0.882852,-3.558526 1.834936,-5.416056 2.191822,-4.276279 5.897509,-7.954247 10.172579,-10.096488 1.989628,-0.997004 3.587245,-1.506247 5.868797,-1.870686 1.945671,-0.310789 9.195831,-1.354335 9.229571,-1.328451 0.01831,0.01404 -0.782811,5.649145 -1.123585,7.903322 -0.526156,3.480457 -0.989111,5.073339 -2.11465,7.275837 -1.306491,2.556591 -2.885017,4.617234 -5.055997,6.600212 -2.32445,2.123158 -4.716467,3.583322 -7.48271,4.567689 -1.531633,0.545031 -2.480577,0.723651 -8.556617,1.610618 -2.095852,0.305948 -3.906821,0.572635 -4.024376,0.592639 l -0.213737,0.03637 z"
   id="path3341" /><path
   style="fill:#7e369d;fill-opacity:1;stroke:#dbe4e7;stroke-width:0.180694"
   d="m 38.875445,25.643092 c -0.168667,-1.353042 -0.509145,-2.818549 -1.052919,-4.53204 -0.148725,-0.468647 -0.270409,-0.891816 -0.270409,-0.940374 0,-0.209339 2.121583,-1.306131 6.755224,-3.492239 3.112226,-1.468318 4.900913,-2.285742 5.064496,-2.314457 0.116928,-0.02052 0.147066,0.207864 0.417657,3.164958 0.160399,1.752894 0.302007,3.482939 0.314684,3.844545 l 0.02305,0.657463 -1.489614,0.255114 c -1.833079,0.313936 -2.9404,0.591501 -4.157061,1.04202 -1.566047,0.579895 -3.580207,1.644087 -4.958656,2.619933 l -0.5591,0.395803 z"
   id="path4797" /><path
   style="fill:#7e369d;fill-opacity:1;stroke:#dbe4e7;stroke-width:0.180694"
   d="M 18.879985,26.406729 C 17.929254,25.668676 16.06669,24.56406 14.826851,24.002968 13.027413,23.18863 11.861782,22.851796 9.3258742,22.413346 8.4533484,22.262489 7.7260882,22.125685 7.7097407,22.109338 c -0.030594,-0.03059 0.047671,-1.015439 0.399793,-5.030746 0.2622506,-2.990492 0.2716212,-3.066499 0.3686715,-2.99037 0.043127,0.03383 1.0449286,0.506601 2.2262268,1.050603 6.882255,3.169359 8.789566,4.115059 9.788981,4.853656 l 0.145966,0.107873 -0.37008,1.139246 c -0.406744,1.252111 -0.804298,2.887428 -0.975955,4.014545 -0.06094,0.400118 -0.132104,0.859438 -0.15815,1.020713 l -0.04736,0.293228 z"
   id="path4868" /><path
   style="fill:#9f6ebf;fill-opacity:1;stroke:#dbe4e7;stroke-width:0.180694"
   d="M 28.589195,45.181252 C 27.564645,38.332132 27.338026,37.397249 26.084862,34.850028 25.220965,33.094044 24.401294,31.842025 23.09606,30.28474 22.464452,29.531163 20.823239,27.861516 19.924468,27.0582 l -0.341204,-0.304966 0.0867,-0.694684 c 0.09656,-0.773711 0.357477,-2.141746 0.569668,-2.986862 0.592743,-2.360777 1.357174,-4.061895 2.786522,-6.200949 0.515246,-0.771078 4.773397,-6.9423781 5.526457,-8.009442 l 0.445074,-0.6306589 1.312158,1.8777769 c 3.199579,4.578791 5.035527,7.26325 5.406723,7.905516 0.694298,1.20132 1.445225,2.959275 1.835803,4.297705 0.235084,0.805583 0.649327,2.823196 0.773146,3.765688 l 0.08539,0.649967 -0.758493,0.695835 c -3.113713,2.85649 -5.127892,5.662337 -6.429174,8.956139 -0.727394,1.841176 -0.888084,2.596281 -1.696176,7.970575 l -0.532488,3.541358 z"
   id="path5596" /></svg>
